<svg width="123" height="26" viewBox="0 0 123 26" fill="none" xmlns="http://www.w3.org/2000/svg">
<path d="M0.689453 0.548828H6.63086C10.6387 0.548828 13.8145 1.53906 16.1582 3.51953C18.6895 5.64062 19.9551 8.73438 19.9551 12.8008C19.9551 16.8672 18.7246 19.9551 16.2637 22.0645C13.9668 24.0215 10.8145 25 6.80664 25H0.689453V0.548828ZM16.3516 12.8184C16.3516 6.52539 13.0352 3.37891 6.40234 3.37891H4.20508V22.1875H6.5957C11.6582 22.1875 14.7402 20.3594 15.8418 16.7031C16.1816 15.543 16.3516 14.248 16.3516 12.8184ZM23.9102 12.8008C23.9102 10.8906 24.1973 9.16211 24.7715 7.61523C25.3457 6.06836 26.1426 4.75 27.1621 3.66016C29.3066 1.38672 32.0898 0.25 35.5117 0.25C38.9453 0.25 41.7227 1.38672 43.8438 3.66016C46 5.96875 47.0781 9.01562 47.0781 12.8008C47.0781 16.5859 46 19.6211 43.8438 21.9062C41.7344 24.1562 38.957 25.2812 35.5117 25.2812C32.0781 25.2812 29.2949 24.1562 27.1621 21.9062C24.9941 19.6094 23.9102 16.5742 23.9102 12.8008ZM27.4258 12.7832C27.4258 15.4551 28.0762 17.6641 29.377 19.4102C30.8418 21.3555 32.8867 22.3281 35.5117 22.3281C38.1367 22.3281 40.1758 21.3555 41.6289 19.4102C42.918 17.6875 43.5625 15.4902 43.5625 12.8184C43.5625 10.123 42.918 7.90234 41.6289 6.15625C40.1758 4.1875 38.1367 3.20312 35.5117 3.20312C32.875 3.20312 30.8301 4.1875 29.377 6.15625C28.0762 7.90234 27.4258 10.1113 27.4258 12.7832ZM70.0527 24.7539C68.7051 25.1055 66.9238 25.2812 64.709 25.2812C62.5059 25.2812 60.6133 25.0059 59.0312 24.4551C57.4609 23.9043 56.1074 23.0898 54.9707 22.0117C52.5332 19.7383 51.3145 16.5742 51.3145 12.5195C51.3145 9.87109 51.9473 7.58594 53.2129 5.66406C54.9238 3.05078 57.5547 1.38672 61.1055 0.671875C62.1953 0.460938 63.5312 0.355469 65.1133 0.355469C66.6953 0.355469 68.0605 0.431641 69.209 0.583984V3.95898C68.2012 3.70117 66.7598 3.57227 64.8848 3.57227C63.0215 3.57227 61.4922 3.7832 60.2969 4.20508C59.1016 4.62695 58.1113 5.23047 57.3262 6.01562C55.7559 7.55078 54.9707 9.71875 54.9707 12.5195C54.9707 15.3672 55.7441 17.6465 57.291 19.3574C58.9785 21.2207 61.3867 22.1523 64.5156 22.1523C65.2422 22.1523 65.916 22.123 66.5371 22.0645V13.0469H70.0527V24.7539ZM94.0645 24.7539C92.7168 25.1055 90.9355 25.2812 88.7207 25.2812C86.5176 25.2812 84.625 25.0059 83.043 24.4551C81.4727 23.9043 80.1191 23.0898 78.9824 22.0117C76.5449 19.7383 75.3262 16.5742 75.3262 12.5195C75.3262 9.87109 75.959 7.58594 77.2246 5.66406C78.9355 3.05078 81.5664 1.38672 85.1172 0.671875C86.207 0.460938 87.543 0.355469 89.125 0.355469C90.707 0.355469 92.0723 0.431641 93.2207 0.583984V3.95898C92.2129 3.70117 90.7715 3.57227 88.8965 3.57227C87.0332 3.57227 85.5039 3.7832 84.3086 4.20508C83.1133 4.62695 82.123 5.23047 81.3379 6.01562C79.7676 7.55078 78.9824 9.71875 78.9824 12.5195C78.9824 15.3672 79.7559 17.6465 81.3027 19.3574C82.9902 21.2207 85.3984 22.1523 88.5273 22.1523C89.2539 22.1523 89.9277 22.123 90.5488 22.0645V13.0469H94.0645V24.7539ZM98.9336 12.8008C98.9336 10.8906 99.2207 9.16211 99.7949 7.61523C100.369 6.06836 101.166 4.75 102.186 3.66016C104.33 1.38672 107.113 0.25 110.535 0.25C113.969 0.25 116.746 1.38672 118.867 3.66016C121.023 5.96875 122.102 9.01562 122.102 12.8008C122.102 16.5859 121.023 19.6211 118.867 21.9062C116.758 24.1562 113.98 25.2812 110.535 25.2812C107.102 25.2812 104.318 24.1562 102.186 21.9062C100.018 19.6094 98.9336 16.5742 98.9336 12.8008ZM102.449 12.7832C102.449 15.4551 103.1 17.6641 104.4 19.4102C105.865 21.3555 107.91 22.3281 110.535 22.3281C113.16 22.3281 115.199 21.3555 116.652 19.4102C117.941 17.6875 118.586 15.4902 118.586 12.8184C118.586 10.123 117.941 7.90234 116.652 6.15625C115.199 4.1875 113.16 3.20312 110.535 3.20312C107.898 3.20312 105.854 4.1875 104.4 6.15625C103.1 7.90234 102.449 10.1113 102.449 12.7832Z" fill="black"/>
</svg>
