<svg width="91" height="82" viewBox="0 0 91 82" fill="none" xmlns="http://www.w3.org/2000/svg">
<path d="M83.7662 0H7.24292C3.23697 0 0 2.91409 0 6.51837V71.7377C0 75.331 3.23697 78.2533 7.24292 78.2533H83.7662C87.7539 78.2533 91 75.3337 91 71.7377V6.51837C90.997 2.91409 87.7509 0 83.7662 0ZM61.1682 23.2333C59.2868 22.2419 57.7944 21.4586 55.9191 21.4586C54.0833 21.4586 52.515 21.8721 51.7126 22.5678C50.9102 23.258 50.512 24.5945 50.512 26.5692V29.4915H60.3262L58.2017 37.6203H50.512V64.6305H38.1841V37.6203H32.4305V29.4915H38.1902V26.3884C38.1902 23.121 38.6248 21.1655 39.482 19.5524C40.336 17.9447 41.9925 16.1535 44.2964 15.1401C46.5972 14.1295 50.0014 13.6201 53.524 13.6201C57.1349 13.6201 59.9554 14.7047 63.4143 15.5784L61.1682 23.2333Z" fill="black"/>
</svg>
