<svg width="113" height="82" viewBox="0 0 113 82" fill="none" xmlns="http://www.w3.org/2000/svg">
<path d="M53.2058 48.8955L37.1103 34.8581H75.6067L59.4645 48.9367C57.8176 50.373 54.8999 50.3318 53.2058 48.8955ZM78.1015 59.9778V37.0332L64.971 48.4847L78.1015 59.9778ZM34.7577 37.0332L34.7104 59.9774L47.8405 48.4847L34.7577 37.0332ZM0.882812 70.9262C0.882812 70.9262 0.882812 25.8165 0.882812 25.6649C0.882812 20.0403 6.2406 15.784 11.9904 15.784H40.6094V6.2655C40.6094 2.89233 44.1309 0.769958 48.2682 0.769958C48.1804 0.769958 64.2904 0.769958 64.2904 0.769958C68.516 0.769958 71.9492 2.89233 71.9492 6.2655V15.3991H101.015C106.74 15.3991 112.073 19.7058 112.117 25.3969C112.117 25.589 112.117 71.1941 112.117 71.1941C112.117 77.5389 106.696 81.2304 101.059 81.2304H11.918C6.25517 81.2301 0.882812 77.1967 0.882812 70.9262ZM46.3477 15.784H66.2109V6.15963H46.3477V15.784ZM31.1809 65.2316H81.8191V31.7386H31.1809V65.2316ZM62.3826 50.6602L61.8176 51.1526C58.8527 53.7385 53.9112 53.7385 50.8054 51.1526L50.2409 50.701L37.1576 62.1117H75.6072L62.3826 50.6602Z" fill="black"/>
</svg>
