<svg width="131" height="116" viewBox="0 0 131 116" fill="none" xmlns="http://www.w3.org/2000/svg">
<path d="M104.448 46.5668C104.235 43.1665 105.304 39.9511 103.592 37.3085C99.3225 30.6929 88.6542 26.9156 67.3094 26.9156V26.7235V26.912C43.8318 26.912 33.8021 30.6929 29.5364 37.3049C28.086 40.2151 27.4284 43.3865 27.6164 46.5631C26.8285 49.4702 26.4693 52.4555 26.5479 55.4444C27.1866 59.6023 27.6164 63.7601 28.255 67.5374C28.8937 70.7491 34.019 73.2069 34.6577 76.2374C35.939 84.3646 44.0487 88.1419 67.5223 88.1419V89.088H67.1129V88.1419C88.4536 88.1419 97.4067 84.361 98.7003 76.2374C99.1097 73.2141 103.396 70.7564 104.022 67.5374C104.661 63.7565 104.878 59.5986 105.516 55.4444C105.512 52.4602 105.154 49.4848 104.448 46.5668V46.5668Z" fill="#EFCCA3"/>
<path d="M66.2451 49.59C69.7365 49.8726 72.9597 51.3674 75.2104 53.7479C78.1988 56.0171 83.1072 57.5287 85.2401 59.6059C87.8371 61.5124 89.8244 63.9884 91.0041 66.787C91.8201 69.4367 92.2507 72.1679 92.2854 74.9142C92.2854 75.8604 92.924 75.6719 94.6311 74.9142C98.0124 73.0867 101.04 70.7893 103.596 68.1101C102.958 71.3219 98.4752 74.1566 98.0494 77.1726C96.7681 85.2999 87.815 89.2656 65.8234 89.2656H67.1048" fill="#CCAC8D"/>
<path d="M79.9059 43.1665C80.7615 45.6242 83.533 54.1285 77.986 51.2937C80.0094 52.7014 81.3764 54.7197 81.8259 56.9632C82.094 58.1663 82.7331 59.28 83.6725 60.181C84.6119 61.0819 85.8148 61.7348 87.1478 62.0672C90.834 62.5512 94.5875 61.7365 97.6032 59.798C99.3731 58.2961 100.586 56.3538 101.082 54.228C101.577 52.1022 101.332 49.8932 100.379 47.8935C99.7295 46.2653 98.5541 44.8419 96.9987 43.8004C95.4433 42.7589 93.5765 42.1452 91.6304 42.0355C87.6063 41.0857 79.0503 40.3317 79.9059 43.1665Z" fill="#CCAC8D"/>
<path d="M90.7911 59.2289C95.1524 59.2289 98.688 56.0982 98.688 52.2362C98.688 48.3743 95.1524 45.2436 90.7911 45.2436C86.4298 45.2436 82.8943 48.3743 82.8943 52.2362C82.8943 56.0982 86.4298 59.2289 90.7911 59.2289Z" fill="black"/>
<path d="M88.6542 50.9131C89.8321 50.9131 90.787 50.0675 90.787 49.0245C90.787 47.9814 89.8321 47.1359 88.6542 47.1359C87.4763 47.1359 86.5214 47.9814 86.5214 49.0245C86.5214 50.0675 87.4763 50.9131 88.6542 50.9131Z" fill="white"/>
<path d="M78.6245 51.8593C82.6398 54.3537 86.3583 57.2031 89.7227 60.3635C93.5626 64.7135 93.5626 65.4675 93.5626 65.4675L90.7871 66.6021C88.7122 63.0166 85.7157 59.9125 82.0387 57.5396C77.1262 55.0819 76.4917 53.0048 76.4917 53.0048L78.6245 51.8593Z" fill="#EFCCA3"/>
<path d="M66.4621 49.59C62.7864 49.8645 59.3601 51.3478 56.8581 53.7479C53.8697 56.0171 48.5355 57.5288 46.6237 59.6059C43.9614 61.4997 41.9016 63.9745 40.6469 66.787C39.8308 69.4367 39.4002 72.1679 39.3655 74.9143C39.3655 75.8604 39.5784 76.0489 36.8028 74.9143C33.3721 73.1478 30.3339 70.842 27.8375 68.1101C28.4761 71.3219 32.9588 74.1566 33.3846 77.1726C34.6659 85.1114 43.6189 89.0771 65.6106 89.0771H67.1048" fill="#CCAC8D"/>
<path d="M86.9471 62.6291C84.4985 59.7526 81.343 57.4069 77.7195 55.7697C74.096 54.1324 70.0994 53.2464 66.0322 53.1787V53.1787C61.9698 53.269 57.9821 54.1649 54.3625 55.8004C50.7429 57.4359 47.5836 59.7694 45.1172 62.6291C43.4744 64.1438 42.2376 65.9664 41.4985 67.9619C40.7594 69.9574 40.5368 72.0746 40.8474 74.1566C40.8474 90.9766 47.4629 85.8726 51.9456 87.9534C56.4098 89.2724 61.1577 89.6607 65.8193 89.088V89.088C70.4806 89.6694 75.2308 89.2809 79.693 87.9534C84.1757 85.8762 90.7912 90.9766 90.7912 74.1566C91.3204 72.1046 91.2448 69.9664 90.5717 67.9477C89.8985 65.929 88.6503 64.0975 86.9471 62.6291V62.6291Z" fill="#56332B"/>
<path d="M65.6064 57.9058C65.4455 61.0549 64.7995 64.1697 63.6865 67.164L66.0322 66.5985L65.6064 57.9058Z" fill="#442823"/>
<path d="M66.2451 57.9058C66.406 61.0549 67.052 64.1697 68.1651 67.164L65.8193 66.5985L66.2451 57.9058Z" fill="#442823"/>
<path d="M58.7781 56.0171C57.9225 54.1285 61.1238 51.1053 66.2492 51.1053C71.3745 51.1053 74.5718 54.1285 73.7203 56.0171C72.8688 57.9058 69.4505 58.4749 66.2492 58.4749C62.8309 58.4713 59.6296 57.9058 58.7781 56.0171Z" fill="#56332B"/>
<path d="M66.245 57.9058C66.245 57.5433 69.2335 57.5433 70.9406 56.5826C70.9406 56.5826 67.5264 57.5288 66.8837 57.1481C66.4422 56.8022 66.1415 56.3373 66.0281 55.825C65.9146 56.3373 65.6139 56.8022 65.1725 57.1481C64.5338 57.5106 60.6898 56.5826 60.6898 56.5826C62.3637 56.91 64.0061 57.3524 65.6023 57.9058V59.4174C65.4687 61.8799 65.6058 64.348 66.0117 66.787C66.6503 67.5446 66.4211 61.4945 66.4211 59.4174C66.2704 58.9253 66.211 58.4148 66.245 57.9058Z" fill="black"/>
<path d="M66.2451 68.6756C68.6575 68.9606 70.9408 69.8088 72.8606 71.1334C71.1914 69.2179 68.8728 67.8267 66.2451 67.164C63.2315 67.7431 60.5687 69.2935 58.774 71.514C60.8779 69.9135 63.4855 68.9228 66.2451 68.6756V68.6756Z" fill="#7F4A41"/>
<path d="M65.8193 82.65C62.4716 82.4863 59.1654 81.9142 55.9943 80.9499C55.3557 80.7614 54.713 81.1384 54.0743 80.9499C48.9168 79.6559 44.3577 76.9429 41.0562 73.2032V73.9609C41.0562 90.7809 47.6717 85.6769 52.1544 87.7576C56.6186 89.0766 61.3665 89.4649 66.0281 88.8922V88.8922C70.6894 89.4737 75.4396 89.0852 79.9018 87.7576C84.3845 85.6805 91 90.7809 91 73.9609V72.2607C87.8411 76.3689 83.1685 79.3776 77.7812 80.7722C77.1426 80.9607 76.0741 80.5837 75.4355 80.5837C72.3885 81.7579 69.1352 82.4569 65.8193 82.65V82.65Z" fill="#442823"/>
<path d="M57.071 73.5875C57.071 73.5875 54.7252 79.634 56.4323 82.2875L54.2995 81.5299C54.9996 78.8252 55.926 76.1704 57.071 73.5875V73.5875Z" fill="#442823"/>
<path d="M74.9975 73.5875C74.9975 73.5875 77.3432 79.634 75.6361 82.2875L77.7813 81.5299C77.1796 78.8012 76.2463 76.1383 74.9975 73.5875V73.5875Z" fill="#442823"/>
<path d="M51.5198 43.1665C50.6642 45.6242 47.8928 54.1285 53.4398 51.2937C51.4164 52.7014 50.0494 54.7197 49.5999 56.9632C49.3318 58.1663 48.6926 59.28 47.7532 60.181C46.8138 61.0819 45.6109 61.7348 44.278 62.0672C40.5886 62.5593 36.8285 61.7496 33.8062 59.8125C32.0363 58.3107 30.8233 56.3683 30.3276 54.2425C29.832 52.1167 30.0771 49.9077 31.0306 47.908C31.6799 46.2798 32.8553 44.8564 34.4107 43.8149C35.9661 42.7734 37.8328 42.1597 39.7789 42.05C43.8399 41.0857 52.3754 40.3317 51.5198 43.1665Z" fill="#CCAC8D"/>
<path d="M66.0322 67.164C68.6775 67.8234 71.0425 69.1629 72.8278 71.0129C74.6132 72.8629 75.7387 75.1403 76.0619 77.5569V77.1944C75.9946 74.6845 74.965 72.2695 73.1422 70.3465C71.3194 68.4235 68.812 67.1069 66.0322 66.613C63.2349 67.0748 60.7055 68.3824 58.8762 70.3124C57.0469 72.2423 56.0311 74.6749 56.0025 77.1944V77.5569C56.3613 75.1516 57.4996 72.8899 59.2796 71.0455C61.0596 69.201 63.405 67.8528 66.0322 67.164Z" fill="black"/>
<path d="M68.0546 55.9734C68.3962 55.8954 68.5298 55.3403 68.3531 54.7335C68.1764 54.1267 67.7562 53.6981 67.4147 53.7761C67.0732 53.854 66.9396 54.4092 67.1163 55.0159C67.293 55.6227 67.7131 56.0514 68.0546 55.9734Z" fill="#331712"/>
<path d="M64.5082 55.0737C64.7179 54.4752 64.6147 53.915 64.2779 53.8224C63.941 53.7299 63.498 54.1401 63.2883 54.7386C63.0786 55.3371 63.1817 55.8973 63.5186 55.9898C63.8554 56.0823 64.2985 55.6722 64.5082 55.0737Z" fill="#331712"/>
<path d="M41.0644 59.2289C45.4257 59.2289 48.9612 56.0982 48.9612 52.2362C48.9612 48.3743 45.4257 45.2436 41.0644 45.2436C36.7031 45.2436 33.1675 48.3743 33.1675 52.2362C33.1675 56.0982 36.7031 59.2289 41.0644 59.2289Z" fill="black"/>
<path d="M43.1972 50.9131C44.3752 50.9131 45.3301 50.0675 45.3301 49.0245C45.3301 47.9814 44.3752 47.1359 43.1972 47.1359C42.0193 47.1359 41.0644 47.9814 41.0644 49.0245C41.0644 50.0675 42.0193 50.9131 43.1972 50.9131Z" fill="white"/>
<path d="M68.3656 52.2362C68.3656 52.2362 66.2328 52.9939 65.8029 53.1824C64.904 52.9719 64.0418 52.6536 63.2402 52.2362H68.3656Z" fill="#7F4A41"/>
<path d="M52.8094 51.8593C48.7941 54.3537 45.0756 57.2031 41.7112 60.3635C37.8713 64.7135 37.8713 65.4675 37.8713 65.4675L40.6468 66.6021C42.7217 63.0166 45.7182 59.9125 49.3952 57.5396C54.3077 55.0819 54.9422 53.0048 54.9422 53.0048L52.8094 51.8593Z" fill="#EFCCA3"/>
<path d="M37.2204 39.1971C35.7331 42.6838 32.9475 45.6172 29.3235 47.5129C31.587 47.2753 33.6632 46.2833 35.1302 44.7386C36.5971 43.1939 37.3445 41.2124 37.2204 39.1971V39.1971Z" fill="#CCAC8D"/>
<path d="M93.7797 39.1971C95.267 42.6838 98.0525 45.6172 101.677 47.5129C99.4131 47.2753 97.3368 46.2833 95.8699 44.7386C94.403 43.1939 93.6556 41.2124 93.7797 39.1971Z" fill="#CCAC8D"/>
<path d="M79.0503 50.1555C75.6198 47.2495 71.1838 45.4515 66.4579 45.0515H67.0965C64.733 45.0263 62.3933 45.4719 60.2505 46.3554C58.1077 47.2388 56.2166 48.5376 54.717 50.1555C58.2391 47.6872 62.6049 46.3538 67.0965 46.3746V46.3746C71.3954 46.6482 75.5285 47.9555 79.0503 50.1555V50.1555Z" fill="#CCAC8D"/>
<path d="M72.6477 39.7626C71.0857 37.9433 68.7931 36.7258 66.245 36.3624H66.8837C65.6063 36.4006 64.3626 36.7347 63.2765 37.3313C62.1905 37.928 61.3 38.7662 60.6939 39.7626C62.3132 38.2561 64.5362 37.3735 66.8837 37.3049V37.3049C67.9866 37.3278 69.0713 37.559 70.0653 37.9828C71.0593 38.4066 71.9397 39.0134 72.6477 39.7626V39.7626Z" fill="#CCAC8D"/>
<path d="M41.0644 64.3292C38.8277 65.3496 36.2495 65.6187 33.8062 65.0869H32.9547C31.2649 63.5452 30.0206 61.6648 29.3276 59.6059C30.2141 61.5846 31.9321 63.1821 34.1206 64.0628C36.3092 64.9436 38.798 65.0391 41.0644 64.3292Z" fill="#CCAC8D"/>
<path d="M90.5784 64.3292C92.8151 65.3496 95.3932 65.6187 97.8366 65.0869H96.981C98.2365 64.6415 99.3239 63.8903 100.117 62.9203C100.911 61.9502 101.377 60.8011 101.464 59.6059C101.136 60.5706 100.586 61.465 99.8498 62.2331C99.1135 63.0012 98.2061 63.6265 97.1844 64.0698C96.1627 64.5132 95.0486 64.765 93.9119 64.8097C92.7753 64.8543 91.6404 64.6908 90.5784 64.3292V64.3292Z" fill="#CCAC8D"/>
<path d="M45.9728 38.8201C49.021 38.29 52.1682 38.4143 55.151 39.1826C58.9909 40.3172 56.0066 44.8521 56.6452 45.0406C57.8754 44.0482 59.3301 43.2989 60.9126 42.8427C62.4951 42.3864 64.1691 42.2336 65.8234 42.3944C73.0816 42.7569 73.9331 45.6061 75.0016 45.0406C76.07 44.6781 73.9331 37.1019 85.0312 38.8056C85.0312 38.8056 73.7202 36.1594 74.146 43.3405C71.8103 41.9892 69.0963 41.2397 66.3072 41.1757C63.5181 41.1117 60.7639 41.7357 58.3523 42.978C58.3523 42.978 60.698 35.9854 45.9728 38.8201Z" fill="#CCAC8D"/>
<path d="M42.9844 29C42.9844 29 33.1593 39.7735 31.8862 43.9278C30.392 48.0856 29.3235 65.4711 28.0463 67.9289L23.5636 50.9131L31.8862 33.1506L42.9844 29Z" fill="#CCAC8D"/>
<path d="M88.6543 29C88.6543 29 98.4793 39.7735 99.7525 43.9278C101.247 48.0856 102.315 65.4711 103.592 67.9289L108.075 50.9131L99.7525 33.1506L88.6543 29Z" fill="#CCAC8D"/>
<path d="M88.0156 29C93.9723 33.4813 98.5898 39.1936 101.46 45.6315C104.448 54.5127 103.167 65.4747 105.516 66.7979C108.931 68.6865 112.558 57.3475 113.839 56.2165C115.759 54.3279 122.374 49.4124 122.804 48.4699C123.234 47.5274 109.573 34.2961 103.384 31.6499C96.5511 28.6121 87.6063 28.2351 88.0156 29Z" fill="#56332B"/>
<path d="M96.981 33.7125C104.537 42.8341 108.78 53.7755 109.148 65.0832L114.06 56.202C110.377 47.6509 104.535 39.9585 96.981 33.7125V33.7125Z" fill="#442823"/>
<path d="M42.9844 29C37.0277 33.4813 32.4102 39.1936 29.5405 45.6315C26.5521 54.5127 27.8334 65.4747 25.4836 66.7979C22.0694 68.6865 18.4424 57.3475 17.161 56.2165C15.241 54.3279 8.62555 49.4124 8.1957 48.4699C7.76586 47.5274 21.4267 34.2961 27.6164 31.6499C34.4489 28.6121 43.3938 28.2351 42.9844 29Z" fill="#56332B"/>
<path d="M34.0191 33.7125C26.463 42.8341 22.2196 53.7755 21.8524 65.0832L16.9481 56.1875C20.631 47.6423 26.4699 39.9551 34.0191 33.7125V33.7125Z" fill="#442823"/>
<path d="M27.1907 65.2754C27.5283 67.287 28.3265 69.2163 29.5364 70.9449C31.0306 72.268 29.9458 69.8102 29.9458 69.8102C29.9458 69.8102 28.4515 69.0526 28.6644 63.5753C28.8773 58.0979 27.1907 65.2754 27.1907 65.2754Z" fill="#CCAC8D"/>
<path d="M104.022 65.2754C103.685 67.287 102.886 69.2163 101.677 70.9449C100.182 72.268 101.267 69.8103 101.267 69.8103C101.267 69.8103 102.761 69.0526 102.548 63.5753C102.315 58.2828 104.022 65.2754 104.022 65.2754Z" fill="#CCAC8D"/>
<path d="M56.8581 62.6291C57.2108 62.6291 57.4967 62.376 57.4967 62.0636C57.4967 61.7513 57.2108 61.4981 56.8581 61.4981C56.5054 61.4981 56.2195 61.7513 56.2195 62.0636C56.2195 62.376 56.5054 62.6291 56.8581 62.6291Z" fill="#442823"/>
<path d="M52.5883 66.5985C52.941 66.5985 53.227 66.3453 53.227 66.033C53.227 65.7207 52.941 65.4675 52.5883 65.4675C52.2356 65.4675 51.9497 65.7207 51.9497 66.033C51.9497 66.3453 52.2356 66.5985 52.5883 66.5985Z" fill="#442823"/>
<path d="M51.307 62.6291C51.6597 62.6291 51.9456 62.376 51.9456 62.0636C51.9456 61.7513 51.6597 61.4981 51.307 61.4981C50.9543 61.4981 50.6683 61.7513 50.6683 62.0636C50.6683 62.376 50.9543 62.6291 51.307 62.6291Z" fill="#442823"/>
<path d="M74.3588 62.6291C74.7115 62.6291 74.9975 62.376 74.9975 62.0636C74.9975 61.7513 74.7115 61.4981 74.3588 61.4981C74.0061 61.4981 73.7202 61.7513 73.7202 62.0636C73.7202 62.376 74.0061 62.6291 74.3588 62.6291Z" fill="#442823"/>
<path d="M78.4117 66.5985C78.7644 66.5985 79.0503 66.3453 79.0503 66.033C79.0503 65.7207 78.7644 65.4675 78.4117 65.4675C78.059 65.4675 77.7731 65.7207 77.7731 66.033C77.7731 66.3453 78.059 66.5985 78.4117 66.5985Z" fill="#442823"/>
<path d="M79.6931 62.6291C80.0458 62.6291 80.3317 62.376 80.3317 62.0636C80.3317 61.7513 80.0458 61.4981 79.6931 61.4981C79.3404 61.4981 79.0544 61.7513 79.0544 62.0636C79.0544 62.376 79.3404 62.6291 79.6931 62.6291Z" fill="#442823"/>
</svg>
